{"title":"Glory 29 Superfight Series 720p HDTV x264-FiGHTNiGHT [TJET]","uid":14347421,"size":3752478044,"categoryP":"video","categoryS":"hd___tv_shows","magnet":"?xt=urn:btih:7b51b91472108b417da96c75d14c45605eb50d96&amp;dn=Glory+29+Superfight+Series+720p+HDTV+x264-FiGHTNiGHT+%5BTJET%5D&amp;tr=udp%3A%2F%2Ftracker.leechers-paradise.org%3A6969&amp;tr=udp%3A%2F%2Fzer0day.ch%3A1337&amp;tr=udp%3A%2F%2Fopen.demonii.com%3A1337&amp;tr=udp%3A%2F%2Ftracker.coppersurfer.tk%3A6969&amp;tr=udp%3A%2F%2Fexodus.desync.com%3A6969","seeders":1,"leechers":1,"uploader":"CenaCme","files":2,"time":1460990478,"description":"Light Heavyweight Democratic Republic of the Congo Zack Mwekassa vs. France Zinedine Hameur-Lain\r\nWelterweight Spain Maximo Suarez vs. Armenia Harut Grigorian\r\nHeavyweight Turkey Cihad Kepenek vs. Slovakia Tomas Mozny\r\nWelterweight Sweden Alex Harris vs. Brazil Jonatan Oliveira\r\nLightweight Denmark Rhassan Muhareb vs. Sweden Abdou Karim Chorr\r\n\r\nGeneral\r\nUnique ID : 0 (0x0)\r\nFormat : Matroska\r\nFormat version : Version 4 / Version 2\r\nFile size : 3.49 GiB\r\nDuration : 1h 59mn\r\nOverall bit rate : 4 176 Kbps\r\nEncoded date : UTC 2010-02-22 21:41:29\r\nWriting application : no_variable_data\r\nWriting library : no_variable_data\r\n\r\nVideo\r\nID : 1\r\nFormat : AVC\r\nFormat/Info : Advanced Video Codec\r\nFormat profile :   \r\nFormat settings, CABAC : Yes\r\nFormat settings, ReFrames : 5 frames\r\nCodec ID : V_MPEG4/ISO/AVC\r\nDuration : 1h 59mn\r\nBit rate : 3 709 Kbps\r\nWidth : 1 280 pixels\r\nHeight : 720 pixels\r\nDisplay aspect ratio : 16:9\r\nFrame rate mode : Constant\r\nFrame rate : 50.000 fps\r\nColor space : YUV\r\nChroma subsampling : 4:2:0\r\nBit depth : 8 bits\r\nScan type : Progressive\r\nBits/(Pixel*Frame) : 0.080\r\nStream size : 3.10 GiB (89%)\r\nWriting library : x264 core 148 r2665 a01e339\r\nEncoding settings : cabac=1 / ref=5 / deblock=1:0:0 / analyse=0x3:0x113 / me=umh / subme=8 / psy=1 / psy_rd=1.00:0.00 / mixed_ref=1 / me_range=16 / chroma_me=1 / trellis=1 / 8x8dct=1 / cqm=0 / deadzone=21,11 / fast_pskip=1 / chroma_qp_offset=-2 / threads=12 / lookahead_threads=2 / sliced_threads=0 / nr=0 / decimate=1 / interlaced=0 / bluray_compat=0 / constrained_intra=0 / bframes=3 / b_pyramid=2 / b_adapt=2 / b_bias=0 / direct=3 / weightb=1 / open_gop=0 / weightp=2 / keyint=250 / keyint_min=25 / scenecut=40 / intra_refresh=0 / rc_lookahead=50 / rc=crf / mbtree=1 / crf=22.0 / qcomp=0.60 / qpmin=0 / qpmax=69 / qpstep=4 / ip_ratio=1.40 / aq=1:1.00\r\nLanguage : English\r\nDefault : Yes\r\nForced : No\r\nMatrix coefficients : BT.709\r\n\r\nAudio\r\nID : 2\r\nFormat : MPEG Audio\r\nFormat version : Version 1\r\nFormat profile : Layer 2\r\nMode : Dual mono\r\nCodec ID : A_MPEG/L2\r\nCodec ID/Hint : MP2\r\nDuration : 1h 59mn\r\nBit rate mode : Constant\r\nBit rate : 384 Kbps\r\nChannel(s) : 2 channels\r\nSampling rate : 48.0 KHz\r\nCompression mode : Lossy\r\nDelay relative to video : 64ms\r\nStream size : 329 MiB (9%)\r\nDefault : Yes\r\nForced : No\r\n\r\n\r\nThumb sheet:\r\n \nhttps://extraimago.com/image/aLB0","torrent":{"xt":"urn:btih:7b51b91472108b417da96c75d14c45605eb50d96","amp;dn":"Glory+29+Superfight+Series+720p+HDTV+x264-FiGHTNiGHT+%5BTJET%5D","amp;tr":["udp%3A%2F%2Ftracker.leechers-paradise.org%3A6969","udp%3A%2F%2Fzer0day.ch%3A1337","udp%3A%2F%2Fopen.demonii.com%3A1337","udp%3A%2F%2Ftracker.coppersurfer.tk%3A6969","udp%3A%2F%2Fexodus.desync.com%3A6969"],"infoHash":"7b51b91472108b417da96c75d14c45605eb50d96","infoHashBuffer":{"type":"Buffer","data":[123,81,185,20,114,16,139,65,125,169,108,117,209,76,69,96,94,181,13,150]},"announce":[],"urlList":[]}}